<?xml version="1.0" encoding="UTF-8"?>
<svg viewBox="0 0 1255.4669 1028.8662" xmlns="http://www.w3.org/2000/svg" xmlns:xlink="http://www.w3.org/1999/xlink">
 <defs>
  <filter id="ap">
   <feGaussianBlur stdDeviation="4.0871"/>
  </filter>
  <filter id="an">
   <feGaussianBlur stdDeviation="7.3425"/>
  </filter>
  <filter id="am">
   <feGaussianBlur stdDeviation="5.9562"/>
  </filter>
  <filter id="al">
   <feGaussianBlur stdDeviation="4.3756"/>
  </filter>
  <filter id="ak">
   <feGaussianBlur stdDeviation="3.0619"/>
  </filter>
  <filter id="at">
   <feGaussianBlur stdDeviation="3.751"/>
  </filter>
  <filter id="as" x="-.08814" y="-.18791" width="1.1763" height="1.3758">
   <feGaussianBlur stdDeviation="12.5369"/>
  </filter>
  <filter id="i" x="-.27403" y="-.33844" width="1.5481" height="1.6769">
   <feGaussianBlur stdDeviation="16.0439"/>
  </filter>
  <filter id="ar" x="-.09054" y="-.27898" width="1.1811" height="1.558">
   <feGaussianBlur stdDeviation="11.603"/>
  </filter>
  <filter id="aq" x="-.10761" y="-.28144" width="1.2152" height="1.5629">
   <feGaussianBlur stdDeviation="12.9495"/>
  </filter>
  <filter id="ao" x="-.10557" y="-.04914" width="1.2111" height="1.0983">
   <feGaussianBlur stdDeviation="5.6109"/>
  </filter>
  <filter id="aw" x="-.16877" y="-.1658" width="1.3375" height="1.3316">
   <feGaussianBlur stdDeviation="14.2773"/>
  </filter>
  <filter id="av" x="-.20531" y="-.23126" width="1.4106" height="1.4625">
   <feGaussianBlur stdDeviation="17.2146"/>
  </filter>
  <filter id="au" x="-.12785" y="-.15066" width="1.2557" height="1.3013">
   <feGaussianBlur stdDeviation="22.3115"/>
  </filter>
  <linearGradient id="h">
   <stop stop-color="#895f00" offset="0"/>
   <stop offset="1"/>
  </linearGradient>
  <linearGradient id="c">
   <stop stop-color="#deaf00" offset="0"/>
   <stop stop-color="#de5d01" offset="1"/>
  </linearGradient>
  <linearGradient id="d">
   <stop stop-color="#fff" offset="0"/>
   <stop stop-color="#e9e3cb" offset=".7727"/>
   <stop stop-color="#373017" offset="1"/>
  </linearGradient>
  <linearGradient id="e">
   <stop stop-color="#3c3c3c" offset="0"/>
   <stop stop-color="#3c3c3c" stop-opacity="0" offset="1"/>
  </linearGradient>
  <linearGradient id="a">
   <stop stop-color="#fff" offset="0"/>
   <stop stop-color="#fff" stop-opacity="0" offset="1"/>
  </linearGradient>
  <linearGradient id="b">
   <stop offset="0"/>
   <stop stop-color="#fff" offset="1"/>
  </linearGradient>
  <linearGradient id="g">
   <stop stop-color="#d2d2d2" offset="0"/>
   <stop stop-color="#d2d2d2" offset=".88"/>
   <stop stop-color="#808080" offset="1"/>
  </linearGradient>
  <linearGradient id="ag" x2="0" y1="457.32" y2="600.01" gradientUnits="userSpaceOnUse">
   <stop stop-color="#fff" offset="0"/>
   <stop stop-color="#bebebe" offset="1"/>
  </linearGradient>
  <linearGradient id="aj" x1="429.13" x2="426.8" y1="272.77" y2="143.59" gradientUnits="userSpaceOnUse" xlink:href="#b"/>
  <linearGradient id="ai" x2="0" y1="295.8" y2="146.25" gradientUnits="userSpaceOnUse" xlink:href="#b"/>
  <linearGradient id="f" x2="0" y1="806.09" y2="888.87" gradientUnits="userSpaceOnUse" xlink:href="#a"/>
  <linearGradient id="ah" x1="1567.6" x2="1532.6" y1="337.4" y2="393.51" gradientTransform="matrix(1.1184 0 0 .71247 -1207.1 248.04)" gradientUnits="userSpaceOnUse" xlink:href="#a"/>
  <linearGradient id="af" x1="1449.7" x2="1487.2" y1="177.43" y2="237.22" gradientTransform="matrix(1.1184 0 0 .99987 -1252.1 32.698)" gradientUnits="userSpaceOnUse" xlink:href="#a"/>
  <linearGradient id="ae" x1="1632.9" x2="1664.2" y1="197.06" y2="249.2" gradientTransform="matrix(1.1184 0 0 .99987 -1236.7 19.377)" gradientUnits="userSpaceOnUse" xlink:href="#a"/>
  <linearGradient id="ad" x1="1498.6" x2="1506.4" y1="234.5" y2="262.63" gradientTransform="matrix(1.1184 0 0 .99987 -1157.1 294.86)" gradientUnits="userSpaceOnUse" xlink:href="#a"/>
  <linearGradient id="ac" x1="1498.6" x2="1506.4" y1="234.5" y2="262.63" gradientTransform="matrix(1.1184 0 0 .99987 -1266.9 12.624)" gradientUnits="userSpaceOnUse" xlink:href="#a"/>
  <linearGradient id="ab" x1="1466.7" x2="1484.5" y1="270" y2="303.34" gradientTransform="matrix(1.1184 0 0 .99987 -1265.1 9.3942)" gradientUnits="userSpaceOnUse" xlink:href="#e"/>
  <linearGradient id="aa" x1="1498.2" x2="1508.4" y1="231.99" y2="262.63" gradientTransform="matrix(1.1184 0 0 .99987 -1042.9 21.27)" gradientUnits="userSpaceOnUse" xlink:href="#a"/>
  <linearGradient id="z" x1="1466.7" x2="1484.5" y1="270" y2="303.34" gradientTransform="matrix(1.1184 0 0 .99987 -1035.7 15.179)" gradientUnits="userSpaceOnUse" xlink:href="#e"/>
  <radialGradient id="u" cx="564.22" cy="498.13" r="29.444" gradientTransform="matrix(-1.7609 -.66778 .38142 -1.2584 1369.2 1521)" gradientUnits="userSpaceOnUse">
   <stop stop-opacity="0" offset="0"/>
   <stop stop-opacity="0" offset=".5"/>
   <stop offset="1"/>
  </radialGradient>
  <radialGradient id="r" cx="463.44" cy="509.46" r="27.757" gradientTransform="matrix(-1.5783 -.83705 .5377 -1.2688 927.3 1543.6)" gradientUnits="userSpaceOnUse">
   <stop offset="0"/>
   <stop stop-opacity="0" offset="1"/>
  </radialGradient>
  <radialGradient id="q" cx="510.3" cy="479.94" r="180.69" gradientTransform="matrix(.00099398 -.78493 .71269 .00090251 111.96 871.06)" gradientUnits="userSpaceOnUse">
   <stop stop-color="#fff" offset="0"/>
   <stop offset="1"/>
  </radialGradient>
  <radialGradient id="l" cx="399.62" cy="639.61" r="169.57" gradientTransform="matrix(.056693 .35394 -.39641 .063699 685.4 288.77)" gradientUnits="userSpaceOnUse">
   <stop stop-color="#a3a3a3" offset="0"/>
   <stop stop-color="#a3a3a3" stop-opacity="0" offset="1"/>
  </radialGradient>
  <radialGradient id="y" cx="513.06" cy="496.92" r="123.75" gradientTransform="matrix(2.7757 .051041 -.017941 .9665 -902.11 2.9559)" gradientUnits="userSpaceOnUse" xlink:href="#b"/>
  <radialGradient id="x" cx="511.63" cy="352.86" r="90.912" gradientTransform="matrix(-2.2916 .095305 -1.6708e-6 -1.1433 1631.7 833.01)" gradientUnits="userSpaceOnUse" xlink:href="#c"/>
  <radialGradient id="w" cx="563.95" cy="498.64" r="28.944" gradientTransform="matrix(-1.7913 -.67932 .38801 -1.2801 1382.4 1538.8)" gradientUnits="userSpaceOnUse" xlink:href="#h"/>
  <radialGradient id="t" cx="463.29" cy="509.78" r="27.257" gradientTransform="matrix(-1.6072 -.8524 .54756 -1.292 935.28 1562.9)" gradientUnits="userSpaceOnUse" xlink:href="#h"/>
  <radialGradient id="p" cx="430.04" cy="269.02" r="77.137" gradientTransform="matrix(1,0,0,1.2625,0,-70.617)" gradientUnits="userSpaceOnUse" xlink:href="#g"/>
  <radialGradient id="o" cx="615.17" cy="306.62" r="77.137" gradientUnits="userSpaceOnUse" xlink:href="#g"/>
  <radialGradient id="n" cx="1619.9" cy="319.54" r="89.638" gradientTransform="matrix(-.84078 -.93063 .40199 -.24787 1523.1 1922.3)" gradientUnits="userSpaceOnUse" xlink:href="#a"/>
  <radialGradient id="m" cx="1619.9" cy="319.54" r="89.638" gradientTransform="matrix(-1.1184 -9.1732e-7 3.7041e-7 -.36095 2380 457.55)" gradientUnits="userSpaceOnUse" xlink:href="#a"/>
  <radialGradient id="k" cx="721.01" cy="-28.866" r="81.635" gradientTransform="matrix(-1.6611 2.3642 -.91219 -.54009 1867.3 -1784)" gradientUnits="userSpaceOnUse" xlink:href="#d"/>
  <radialGradient id="j" cx="721.01" cy="-28.866" r="81.635" gradientTransform="matrix(1.6611 2.3642 .91219 -.54009 -966.02 -1796.5)" gradientUnits="userSpaceOnUse" xlink:href="#d"/>
  <radialGradient id="v" cx="360.91" cy="675.81" r="170.68" gradientTransform="matrix(-1.7413 -.41233 .23039 -.973 775.33 1641.2)" gradientUnits="userSpaceOnUse" xlink:href="#c"/>
  <radialGradient id="s" cx="764.59" cy="687.72" r="170.68" gradientTransform="matrix(-1.8651 -.58219 .45855 -1.469 1830.1 2280)" gradientUnits="userSpaceOnUse" xlink:href="#c"/>
 </defs>
 <g transform="translate(92.818 87.803)" fill-rule="evenodd" stroke="#000" stroke-width="1.0575">
  <path d="m617.08 54.523c74.471-50.778 218.77-79.631 315.69-16.361-12.884 74.177-131.66 123.19-208.94 140.43-63.552-8.6653-137-66.477-106.76-124.07z"/>
  <path d="m270.89 65.43c28.312 55.584-38.776 120.31-99.13 128.16-69.505-18.05-182-43.238-196.74-145.89 99.645-64.474 206.55-35.132 295.87 17.725z"/>
  <path d="m620.13 61.34c41.79-40.317 200.4-75.064 298.92-24.542-107.37 6.8922-190.59 18.3-247.06 73.626-50.373-11.483-72.291-0.58647-51.853-49.084z" fill="#fff" filter="url(#ar)" opacity=".7917"/>
  <path d="m269.37 79.064c-93.936-71.688-216.04-70.571-279.09-28.632 107.76 21.488 190.18 29.601 234.86 80.443 47.736-11.876 64.959-7.391 44.227-51.811z" fill="#fff" filter="url(#aq)" opacity=".7276"/>
 </g>
 <g transform="translate(92.818 87.803)">
  <path d="m78.428 573.59c52.565 149.39 153.94 226.13 191.33 342.79 92.312 3.4311 289.97 2.6575 394.47 3.5322 90.545-186.7 151.81-208.71 172.41-347.49 0 0 34.617 0.13731 114.5 51.559 96.601 82.291 98.126-257.67-182.45-314.66-47.879-12.843-10.147-147.74-10.147-147.74s-41.93-24.116-95.629-71.822-127.51-77.121-208.93-77.121c-82.021 0-156.32 29.916-210.1 78.263s-100.65 90.352-100.65 90.352 48.534 126.6-2e-3 136.34c-50.675 10.165-88.792 26.11-138.64 66.493-117.75 101.19-119.5 280.18-47.896 239.55 79.887-47.139 121.74-50.034 121.74-50.034z" fill-rule="evenodd" stroke="#000" stroke-width="2.4322"/>
  <path transform="matrix(1.2149 0 0 1.0103 -1382.1 27.152)" d="m1720.3 175.49a209.41 177.71 0 1 1 0 -3e-3" fill="#fff" fill-rule="evenodd" filter="url(#au)" opacity=".5769"/>
  <path d="m769.98 671.58c-7.6157 84.546-46.274 121.3-89.084 159.69-41.883 37.555-379.29 22.422-419.71-6.7464s-71.985-43.713-82.671-154.74c-10.525-109.35 115.51-253.83 283.97-253.83 167.21 0 315.3 169.05 307.5 255.63z" fill="url(#ag)" fill-rule="evenodd"/>
  <path transform="matrix(1.1184 0 0 .99987 -118 .05683)" d="m308.79 556.74c34.36 102.95 30.503 132.64 13.533 222.72-9.6709 17.016-13.218 8.6769-23.797 5.251-22.235-25.232-63.439-71.551-94.567-163.69 16.899 29.645 22.469 50.554 50.158 53.96 24.762-46.483 32.436-69.286 54.672-118.24z" fill="#fff" fill-opacity=".3857" fill-rule="evenodd" filter="url(#ao)"/>
  <path transform="matrix(1.1671 0 0 1.0186 -155.99 -13.116)" d="m725.09 284.44a109.92 101.24 0 1 1 0 -2e-3" fill="url(#ai)" fill-rule="evenodd" filter="url(#an)" stroke="#000" stroke-width="8.729"/>
  <path transform="matrix(1.1184 0 0 .99987 -118 .05683)" d="m729.39 529.27c16.359 119.13-45.726 166.42-38.645 260.22 13.716 28.248 35.689 23.743 51.654 14.331 29.929-54.83 93.923-142.33 93.518-207.58-15.83 30.943-17.191 50.774-47.754 66.95-11.409-32.661-27.648-65.659-58.773-133.92z" fill="#fff" fill-opacity=".3857" fill-rule="evenodd" filter="url(#ap)"/>
  <path d="m869.82 903.41c0 16.898-5.3448 23.002-15.009 37.65h-351.76c-9.6636-14.648-15.009-20.752-15.009-37.65 0-67.593 85.518-122.45 190.89-122.45s190.89 54.857 190.89 122.45" fill="url(#s)" fill-rule="evenodd"/>
  <path transform="matrix(1.1184 0 0 .99987 -118 .05683)" d="m181.18 937.27c-8.6405-14.65-13.42-20.754-13.42-37.655" fill="#a0a0a0" fill-rule="evenodd" filter="url(#as)"/>
  <path d="m427.68 903.41c0 16.898-5.3449 23.002-15.009 37.65h-351.76c-9.6636-14.648-15.009-20.752-15.009-37.65 0-67.593 85.518-122.45 190.89-122.45s190.89 54.857 190.89 122.45" fill="url(#v)" fill-rule="evenodd"/>
  <path transform="matrix(1.6741 0 0 .96925 -466.83 10.235)" d="m690.63 299.87a73.528 115.29 0 1 1 0 -2e-3" fill-rule="evenodd" filter="url(#al)"/>
  <path transform="matrix(1.3217 0 0 1.1343 -209.15 -58.7)" d="m511.04 286.37a94.493 120.53 0 1 1 0 -2e-3" fill="url(#aj)" fill-rule="evenodd" filter="url(#am)" stroke="#000" stroke-width="7.7728"/>
  <path transform="matrix(1.4355 0 0 1.2541 -277 -58.691)" d="m507.18 269.02a77.137 97.386 0 1 1 0 -2e-3" fill-rule="evenodd" filter="url(#ak)" stroke="#000" stroke-width="2.3645"/>
  <path transform="matrix(1.4912 0 0 1.479 -1739.9 -395.78)" d="m1382.7 852.37a78.102 46.282 0 1 1 0 -8.1e-4" fill="url(#f)" fill-rule="evenodd" opacity=".8"/>
  <path transform="matrix(1.4912 0 0 1.479 -1237.4 -395.78)" d="m1382.7 852.37a78.102 46.282 0 1 1 0 -8.1e-4" fill="url(#f)" fill-rule="evenodd" opacity=".8"/>
  <path transform="matrix(1.1184 0 0 .99987 -118 .05683)" d="m48.348 526.91s143.27-134.22 184.33-119.33c39.246 14.236 11.41-71.308 11.41-71.308-103.25 0.0402-178.37 100.13-195.74 190.64z" fill="#fff" fill-rule="evenodd" filter="url(#av)" opacity=".6474"/>
  <path transform="matrix(1.1184 0 0 .99987 -118 .05683)" d="m997.93 535.38s-109.03-141.67-196.83-132.32c-31.451 3.3499-21.199-70.982-21.199-70.982 112.14-1.8999 185.59 91.432 218.03 203.3z" fill="#fff" fill-rule="evenodd" filter="url(#aw)" opacity=".5833"/>
  <path transform="translate(-85.437 -93.551)" d="m1248.1 551.73v4.4e-4" fill="#660080"/>
 </g>
 <g transform="translate(92.818 87.803)" fill-rule="evenodd">
  <path d="m272.93 373.6c-1.4327 33.277 2.0878 57.994 2.0511 80.091-17.073 19.438-47.488 67.379-30.179 102.26 42.051 86.722 373.06 94.521 437.88 8.6768 17.744-32.488-7.7614-87.297-32.489-109.81-1.3158-28.306 0.52786-64.239-1.3532-103.45-74.043-122.75-296.42-121.93-375.91 22.229z" fill="url(#q)" stroke="url(#l)" stroke-width="1.9035"/>
  <path d="m506.98 521.9s7.4574 19.26 8.0097 35.557c16.296-4.9385 24.858-9.877 24.858-9.877s-4.143-25.68-32.868-25.68z" fill="url(#ad)"/>
 </g>
 <path transform="matrix(1.2016 0 0 1.0793 -59.097 129.35)" d="m671.07 451.62c0 40.987-70.746 74.214-158.02 74.214s-158.02-33.227-158.02-74.214 70.746-74.214 158.02-74.214c86.975 0 157.6 33.011 158.01 73.859" fill="url(#y)" filter="url(#at)"/>
 <g transform="translate(92.818 87.803)">
  <path d="m595.96 515.25c1.4867-58.301-270.81-68.272-273.45 0.58666 0.66659 62.443 273.22 63.983 273.45-0.58666z" fill="url(#x)" fill-rule="evenodd"/>
 </g>
 <g transform="translate(92.818 87.803)" fill-rule="evenodd">
  <path d="m422.74 479.03c76.001 15.154 108.67 20.318 137.38 57.261 97.816-39.745-81.66-72.155-137.38-57.261z" fill="url(#ah)" opacity=".8"/>
  <path d="m338.65 505.36c1.7828 6.9065 115.32 51.749 115.32 51.749-76.919 7.8342-152.8-33.01-115.32-51.749z" fill="#fff" fill-opacity=".4286"/>
 </g>
 <path transform="matrix(1.1184 0 0 .99987 -11.984 80.297)" d="m582.54 528.39c0 10.156-15.177 18.389-33.899 18.389s-33.899-8.2329-33.899-18.389 15.177-18.389 33.899-18.389 33.899 8.2327 33.899 18.388" fill="url(#w)" stroke="url(#u)" stroke-width="2"/>
 <path transform="matrix(1.1184 0 0 .99987 -6.2406 81.743)" d="m489.81 526.95c0 9.1364-15.643 16.543-34.939 16.543s-34.939-7.4065-34.939-16.543 15.643-16.543 34.939-16.543 34.938 7.4064 34.939 16.543" fill="url(#t)" stroke="url(#r)" stroke-width="2"/>
 <path transform="matrix(.77767 .44131 -.58719 .58446 336.76 -293.16)" d="m768.25 296.4c0 27.945-32.848 50.598-73.367 50.598s-73.367-22.654-73.367-50.598 32.848-50.598 73.367-50.598 73.367 22.654 73.367 50.598z" fill="#180019" filter="url(#i)"/>
 <path transform="matrix(.84111 -.33783 .14711 .6311 -243.32 225.99)" d="m768.25 296.4c0 27.945-32.848 50.598-73.367 50.598s-73.367-22.654-73.367-50.598 32.848-50.598 73.367-50.598 73.367 22.654 73.367 50.598z" fill="#180019" filter="url(#i)"/>
 <g transform="translate(92.818 87.803)" fill-rule="evenodd" stroke="#444" stroke-width="2">
  <path d="m562.83 63.349c38.136-45.59 49.618 23.646 199.97-135.37 69.398-75.498-6.2409 160.89-112.14 199.89-33.665 10.541-104.12-47.722-87.827-64.516z" fill="url(#k)"/>
  <path d="m338.44 50.86c-38.136-33.784-39.498 13.526-188.16-120.19-69.398-75.498-5.5653 145.71 100.33 184.71 33.665 10.541 104.12-47.722 87.827-64.516z" fill="url(#j)"/>
 </g>
 <g transform="translate(92.818 87.803)" fill-rule="evenodd">
  <path transform="matrix(1.4784 0 0 1.1066 -342.72 -57.081)" d="m692.31 306.62c0 43.667-34.536 79.066-77.137 79.066s-77.137-35.399-77.137-79.066 34.536-79.066 77.137-79.066 77.137 35.398 77.137 79.065" fill="url(#o)"/>
  <path transform="matrix(1.3663 0 0 1.2249 -246.53 -51.402)" d="m507.18 269.02c0 53.785-34.536 97.386-77.137 97.386s-77.137-43.601-77.137-97.386 34.536-97.386 77.137-97.386 77.137 43.6 77.137 97.384" fill="url(#p)"/>
  <path d="m270.55 204.31c74.453-93.069 173.8-8.3147 172.54 82.912-18.274 72.555-63.473-73.667-172.54-82.912z" fill="url(#af)" opacity=".8"/>
  <path d="m551.32 204.48c35.691-12.824 144.95 32.026 120.78 80.984l-47.449 1.9282s-30.195-61.702-73.331-82.912z" fill="url(#ae)" opacity=".8"/>
  <path transform="matrix(1.1184 0 0 .99987 86.952 -10.781)" d="m509.11 296.02c0 21.833-12.087 39.533-26.998 39.533s-26.998-17.7-26.998-39.533 12.087-39.533 26.998-39.533 26.998 17.699 26.998 39.532"/>
  <path transform="matrix(1.1184 0 0 .99987 -138.67 -16.488)" d="m509.11 296.02c0 21.833-12.087 39.533-26.998 39.533s-26.998-17.7-26.998-39.533 12.087-39.533 26.998-39.533 26.998 17.699 26.998 39.532" stroke="#000" stroke-width="2.3"/>
  <path d="m245.4 249.42c4.4468 80.52 63.964 122.87 137.99 132.17-88.316 43.424-155.31-48.853-137.99-132.17z" fill="url(#n)" opacity=".8"/>
  <path d="m476.54 322.56c70.42 35.014 129.83 42.032 191.44-8.5033-34.667 63.25-143.36 67.573-191.44 8.5033z" fill="url(#m)" opacity=".8"/>
  <path d="m397.18 239.67s7.4574 19.26 8.0097 35.557c16.296-4.9385 22.347-8.2029 22.347-8.2029s-1.8412-26.517-30.357-27.354z" fill="url(#ac)"/>
  <path d="m377.18 254.71c-3.4047 26.84 12.153 50.328 38.116 57.04-37.352 14.385-54.326-29.658-38.116-57.04z" fill="url(#ab)"/>
  <path d="m621.12 248.06c4.3148 11.261 6.8314 23.578 8.458 35.777 8.1365-3.2664 17.149-5.065 23.282-10.874-2.8643-13.523-15.761-25.548-31.74-24.903z" fill="url(#aa)"/>
  <path d="m606.6 260.49c-3.4047 26.84 12.153 50.328 38.116 57.04-37.351 14.385-54.326-29.658-38.116-57.04z" fill="url(#z)"/>
 </g>
</svg>
